<svg preserveAspectRatio="none" width="100%" height="100%" overflow="visible" style="display: block;" viewBox="0 0 99 10" fill="none" xmlns="http://www.w3.org/2000/svg">
<g id="Group 86">
<g id="leehj0110@kakao.com">
<path d="M0.84 7.77H0V0.29L0.84 0.100001V7.77Z" fill="var(--fill-0, black)"/>
<path d="M4.45 2.41C5.11 2.41 5.61667 2.62333 5.97 3.05C6.32333 3.47667 6.5 4.08333 6.5 4.87C6.5 4.98333 6.49333 5.09667 6.48 5.21C6.47333 5.31667 6.46333 5.4 6.45 5.46H3.08C3.10667 6.03333 3.24667 6.46 3.5 6.74C3.76 7.02 4.16667 7.16 4.72 7.16C4.95333 7.16 5.2 7.13333 5.46 7.08C5.72 7.02 5.95333 6.94 6.16 6.84L6.38 7.44C6.12667 7.58 5.85 7.68667 5.55 7.76C5.25667 7.83333 4.95 7.87 4.63 7.87C3.82333 7.87 3.21667 7.64333 2.81 7.19C2.40333 6.73 2.2 6.05 2.2 5.15C2.2 4.28333 2.39667 3.61 2.79 3.13C3.18333 2.65 3.73667 2.41 4.45 2.41ZM4.42 3.1C3.98 3.1 3.64667 3.24667 3.42 3.54C3.2 3.83333 3.08333 4.25667 3.07 4.81H5.68C5.68 4.22333 5.57667 3.79333 5.37 3.52C5.17 3.24 4.85333 3.1 4.42 3.1Z" fill="var(--fill-0, black)"/>
<path d="M9.78203 2.41C10.442 2.41 10.9487 2.62333 11.302 3.05C11.6554 3.47667 11.832 4.08333 11.832 4.87C11.832 4.98333 11.8254 5.09667 11.812 5.21C11.8054 5.31667 11.7954 5.4 11.782 5.46H8.41203C8.4387 6.03333 8.5787 6.46 8.83203 6.74C9.09203 7.02 9.4987 7.16 10.052 7.16C10.2854 7.16 10.532 7.13333 10.792 7.08C11.052 7.02 11.2854 6.94 11.492 6.84L11.712 7.44C11.4587 7.58 11.182 7.68667 10.882 7.76C10.5887 7.83333 10.282 7.87 9.96203 7.87C9.15536 7.87 8.5487 7.64333 8.14203 7.19C7.73536 6.73 7.53203 6.05 7.53203 5.15C7.53203 4.28333 7.7287 3.61 8.12203 3.13C8.51536 2.65 9.0687 2.41 9.78203 2.41ZM9.75203 3.1C9.31203 3.1 8.9787 3.24667 8.75203 3.54C8.53203 3.83333 8.41536 4.25667 8.40203 4.81H11.012C11.012 4.22333 10.9087 3.79333 10.702 3.52C10.502 3.24 10.1854 3.1 9.75203 3.1Z" fill="var(--fill-0, black)"/>
<path d="M13.1641 0.29L14.0041 0.100001V2.94C14.2441 2.78667 14.5141 2.66 14.8141 2.56C15.1207 2.46 15.4141 2.41 15.6941 2.41C16.2807 2.41 16.7174 2.57667 17.0041 2.91C17.2907 3.24333 17.4341 3.72333 17.4341 4.35V7.77H16.5941V4.36C16.5941 3.95333 16.5107 3.65 16.3441 3.45C16.1841 3.24333 15.8941 3.14 15.4741 3.14C15.3674 3.14 15.2474 3.15333 15.1141 3.18C14.9874 3.2 14.8574 3.23 14.7241 3.27C14.5907 3.31 14.4607 3.35667 14.3341 3.41C14.2141 3.45667 14.1041 3.51 14.0041 3.57V7.77H13.1641V0.29Z" fill="var(--fill-0, black)"/>
<path d="M17.9123 9.29C18.1456 9.15 18.3389 9.01 18.4923 8.87C18.6523 8.73 18.7789 8.57667 18.8723 8.41C18.9723 8.24333 19.0423 8.05333 19.0823 7.84C19.1223 7.63333 19.1423 7.38667 19.1423 7.1V2.55H19.9723V7.18C19.9723 7.86667 19.8289 8.42667 19.5423 8.86C19.2623 9.3 18.8389 9.64 18.2723 9.88L17.9123 9.29ZM18.8723 0.71L19.5623 0L20.2623 0.71L19.5623 1.42L18.8723 0.71Z" fill="var(--fill-0, black)"/>
<path d="M23.9292 8C23.1292 8 22.5159 7.7 22.0892 7.1C21.6626 6.5 21.4492 5.61 21.4492 4.43C21.4492 3.25 21.6626 2.35333 22.0892 1.74C22.5159 1.12667 23.1292 0.82 23.9292 0.82C24.7226 0.82 25.3326 1.12333 25.7592 1.73C26.1926 2.33667 26.4092 3.23667 26.4092 4.43C26.4092 5.63 26.1892 6.52667 25.7492 7.12C25.3159 7.70667 24.7092 8 23.9292 8ZM23.9292 1.55C23.4092 1.55 23.0126 1.78667 22.7392 2.26C22.4659 2.73333 22.3292 3.45667 22.3292 4.43C22.3292 6.32333 22.8626 7.27 23.9292 7.27C24.4692 7.27 24.8692 7.02667 25.1292 6.54C25.3959 6.05333 25.5292 5.35 25.5292 4.43C25.5292 3.45667 25.3926 2.73333 25.1192 2.26C24.8459 1.78667 24.4492 1.55 23.9292 1.55Z" fill="var(--fill-0, black)"/>
<path d="M30.5123 7.9H29.6923V1.99L27.8023 3.17L27.4223 2.51L29.9223 0.95H30.5123V7.9Z" fill="var(--fill-0, black)"/>
<path d="M35.3462 7.9H34.5262V1.99L32.6362 3.17L32.2562 2.51L34.7562 0.95H35.3462V7.9Z" fill="var(--fill-0, black)"/>
<path d="M39.7202 8C38.9202 8 38.3069 7.7 37.8802 7.1C37.4536 6.5 37.2402 5.61 37.2402 4.43C37.2402 3.25 37.4536 2.35333 37.8802 1.74C38.3069 1.12667 38.9202 0.82 39.7202 0.82C40.5136 0.82 41.1236 1.12333 41.5502 1.73C41.9836 2.33667 42.2002 3.23667 42.2002 4.43C42.2002 5.63 41.9802 6.52667 41.5402 7.12C41.1069 7.70667 40.5002 8 39.7202 8ZM39.7202 1.55C39.2002 1.55 38.8036 1.78667 38.5302 2.26C38.2569 2.73333 38.1202 3.45667 38.1202 4.43C38.1202 6.32333 38.6536 7.27 39.7202 7.27C40.2602 7.27 40.6602 7.02667 40.9202 6.54C41.1869 6.05333 41.3202 5.35 41.3202 4.43C41.3202 3.45667 41.1836 2.73333 40.9102 2.26C40.6369 1.78667 40.2402 1.55 39.7202 1.55Z" fill="var(--fill-0, black)"/>
<path d="M48.3233 7.06C48.0833 7.06 47.8799 7.01333 47.7133 6.92C47.5466 6.82 47.4233 6.68667 47.3433 6.52C47.2033 6.67333 47.0366 6.80333 46.8433 6.91C46.6499 7.01 46.4299 7.06 46.1833 7.06C45.9499 7.06 45.7533 7.01667 45.5933 6.93C45.4333 6.84333 45.2999 6.72667 45.1933 6.58C45.0866 6.43333 45.0099 6.26667 44.9633 6.08C44.9166 5.88667 44.8933 5.68667 44.8933 5.48C44.8933 5.2 44.9366 4.93333 45.0233 4.68C45.1099 4.42667 45.2299 4.20667 45.3833 4.02C45.5366 3.83333 45.7199 3.68667 45.9333 3.58C46.1533 3.46667 46.3933 3.41 46.6533 3.41C46.8666 3.41 47.0533 3.44 47.2133 3.5C47.3799 3.56 47.5199 3.63667 47.6333 3.73L47.9333 3.41L48.3433 3.67L48.1633 4.08L47.9533 5.83C47.9333 6.06333 47.9666 6.22667 48.0533 6.32C48.1399 6.41333 48.2733 6.46 48.4533 6.46C48.5399 6.46 48.6366 6.44333 48.7433 6.41C48.8499 6.37 48.9499 6.29333 49.0433 6.18C49.1366 6.06667 49.2166 5.90667 49.2833 5.7C49.3499 5.48667 49.3833 5.20667 49.3833 4.86C49.3833 4.46 49.3199 4.1 49.1933 3.78C49.0666 3.46 48.8866 3.19 48.6533 2.97C48.4199 2.75 48.1366 2.58333 47.8033 2.47C47.4699 2.35 47.0933 2.29 46.6733 2.29C46.2399 2.29 45.8466 2.36333 45.4933 2.51C45.1399 2.65667 44.8366 2.86 44.5833 3.12C44.3366 3.38 44.1433 3.68667 44.0033 4.04C43.8699 4.39333 43.8033 4.78 43.8033 5.2C43.8033 5.64667 43.8699 6.05333 44.0033 6.42C44.1366 6.78667 44.3299 7.1 44.5833 7.36C44.8433 7.62667 45.1599 7.83 45.5333 7.97C45.9066 8.11667 46.3299 8.19 46.8033 8.19C47.1833 8.19 47.5366 8.14333 47.8633 8.05C48.1966 7.95667 48.4599 7.84667 48.6533 7.72L48.9733 8.25C48.7399 8.42333 48.4233 8.56 48.0233 8.66C47.6299 8.76 47.2166 8.81 46.7833 8.81C46.1966 8.81 45.6733 8.72 45.2133 8.54C44.7533 8.36667 44.3666 8.12 44.0533 7.8C43.7399 7.48 43.4999 7.1 43.3333 6.66C43.1666 6.22 43.0833 5.73333 43.0833 5.2C43.0833 4.74 43.1599 4.29667 43.3133 3.87C43.4733 3.44333 43.7066 3.06667 44.0133 2.74C44.3199 2.41333 44.6966 2.15333 45.1433 1.96C45.5899 1.76 46.0999 1.66 46.6733 1.66C47.2133 1.66 47.6933 1.74333 48.1133 1.91C48.5399 2.07 48.8999 2.29333 49.1933 2.58C49.4933 2.86 49.72 3.19333 49.8733 3.58C50.0266 3.96667 50.1033 4.38333 50.1033 4.83C50.1033 5.15667 50.0633 5.45667 49.9833 5.73C49.9099 6.00333 49.7966 6.24 49.6433 6.44C49.4966 6.63333 49.3133 6.78667 49.0933 6.9C48.8733 7.00667 48.6166 7.06 48.3233 7.06ZM47.4333 4.18C47.3533 4.12667 47.2566 4.08333 47.1433 4.05C47.0366 4.01 46.9199 3.99 46.7933 3.99C46.4466 3.99 46.1633 4.12 45.9433 4.38C45.7233 4.63333 45.6133 4.99333 45.6133 5.46C45.6133 5.84 45.6766 6.10333 45.8033 6.25C45.9366 6.39667 46.0933 6.47 46.2733 6.47C46.4799 6.47 46.6633 6.42 46.8233 6.32C46.9833 6.22 47.1199 6.09333 47.2333 5.94L47.4333 4.18Z" fill="var(--fill-0, black)"/>
<path d="M54.5005 2.35L55.1605 2.84L53.4305 5L55.4305 7.39L54.7705 7.91L52.4405 5.04L54.5005 2.35ZM52.0705 7.77H51.2305V0.29L52.0705 0.100001V7.77Z" fill="var(--fill-0, black)"/>
<path d="M56.0367 6.35C56.0367 5.81 56.2101 5.40333 56.5567 5.13C56.9101 4.85667 57.4267 4.72 58.1067 4.72H59.1567V4.29C59.1567 3.87 59.0667 3.57333 58.8867 3.4C58.7067 3.22 58.4401 3.13 58.0867 3.13C57.8401 3.13 57.5867 3.16333 57.3267 3.23C57.0667 3.29667 56.8301 3.38 56.6167 3.48L56.3667 2.89C56.6334 2.73667 56.9167 2.62 57.2167 2.54C57.5234 2.45333 57.8201 2.41 58.1067 2.41C58.7334 2.41 59.2001 2.56333 59.5067 2.87C59.8134 3.17667 59.9667 3.66333 59.9667 4.33V7.77H59.3467L59.2467 7.19C58.9867 7.40333 58.7001 7.56667 58.3867 7.68C58.0801 7.79333 57.7934 7.85 57.5267 7.85C57.0601 7.85 56.6934 7.71667 56.4267 7.45C56.1667 7.19 56.0367 6.82333 56.0367 6.35ZM57.6767 7.17C57.7967 7.17 57.9234 7.15667 58.0567 7.13C58.1967 7.09667 58.3334 7.05333 58.4667 7C58.6001 6.94667 58.7267 6.88333 58.8467 6.81C58.9667 6.73667 59.0701 6.65667 59.1567 6.57V5.31H58.2167C57.7367 5.31 57.3867 5.39333 57.1667 5.56C56.9467 5.72 56.8367 5.97 56.8367 6.31C56.8367 6.59 56.9067 6.80333 57.0467 6.95C57.1934 7.09667 57.4034 7.17 57.6767 7.17Z" fill="var(--fill-0, black)"/>
<path d="M64.8911 2.35L65.5511 2.84L63.8211 5L65.8211 7.39L65.1611 7.91L62.8311 5.04L64.8911 2.35ZM62.4611 7.77H61.6211V0.29L62.4611 0.100001V7.77Z" fill="var(--fill-0, black)"/>
<path d="M66.4273 6.35C66.4273 5.81 66.6007 5.40333 66.9473 5.13C67.3007 4.85667 67.8173 4.72 68.4973 4.72H69.5473V4.29C69.5473 3.87 69.4573 3.57333 69.2773 3.4C69.0973 3.22 68.8307 3.13 68.4773 3.13C68.2307 3.13 67.9773 3.16333 67.7173 3.23C67.4573 3.29667 67.2207 3.38 67.0073 3.48L66.7573 2.89C67.024 2.73667 67.3073 2.62 67.6073 2.54C67.914 2.45333 68.2107 2.41 68.4973 2.41C69.124 2.41 69.5907 2.56333 69.8973 2.87C70.204 3.17667 70.3573 3.66333 70.3573 4.33V7.77H69.7373L69.6373 7.19C69.3773 7.40333 69.0907 7.56667 68.7773 7.68C68.4707 7.79333 68.184 7.85 67.9173 7.85C67.4507 7.85 67.084 7.71667 66.8173 7.45C66.5573 7.19 66.4273 6.82333 66.4273 6.35ZM68.0673 7.17C68.1873 7.17 68.314 7.15667 68.4473 7.13C68.5873 7.09667 68.724 7.05333 68.8573 7C68.9907 6.94667 69.1173 6.88333 69.2373 6.81C69.3573 6.73667 69.4607 6.65667 69.5473 6.57V5.31H68.6073C68.1273 5.31 67.7773 5.39333 67.5573 5.56C67.3373 5.72 67.2273 5.97 67.2273 6.31C67.2273 6.59 67.2973 6.80333 67.4373 6.95C67.584 7.09667 67.794 7.17 68.0673 7.17Z" fill="var(--fill-0, black)"/>
<path d="M74.0517 2.41C74.7851 2.41 75.3584 2.64667 75.7717 3.12C76.1851 3.58667 76.3917 4.26333 76.3917 5.15C76.3917 6.03 76.1851 6.70333 75.7717 7.17C75.3651 7.63667 74.7917 7.87 74.0517 7.87C73.3184 7.87 72.7451 7.63667 72.3317 7.17C71.9184 6.70333 71.7117 6.03 71.7117 5.15C71.7117 4.26333 71.9184 3.58667 72.3317 3.12C72.7517 2.64667 73.3251 2.41 74.0517 2.41ZM74.0517 3.1C73.5851 3.1 73.2217 3.27667 72.9617 3.63C72.7084 3.97667 72.5817 4.48333 72.5817 5.15C72.5817 5.81667 72.7084 6.32333 72.9617 6.67C73.2217 7.01 73.5851 7.18 74.0517 7.18C74.5184 7.18 74.8784 7.01 75.1317 6.67C75.3917 6.32333 75.5217 5.81667 75.5217 5.15C75.5217 4.48333 75.3917 3.97667 75.1317 3.63C74.8784 3.27667 74.5184 3.1 74.0517 3.1Z" fill="var(--fill-0, black)"/>
<path d="M77.5239 7.53L78.2939 6.75L79.0539 7.53L78.2939 8.3L77.5239 7.53Z" fill="var(--fill-0, black)"/>
<path d="M83.9383 3.42C83.7583 3.32667 83.5516 3.25333 83.3183 3.2C83.0916 3.14667 82.8683 3.12 82.6483 3.12C82.1416 3.12 81.7483 3.28 81.4683 3.6C81.195 3.92 81.0583 4.44333 81.0583 5.17C81.0583 5.85667 81.195 6.36 81.4683 6.68C81.7483 6.99333 82.1483 7.15 82.6683 7.15C82.9216 7.15 83.175 7.11667 83.4283 7.05C83.6883 6.98333 83.9083 6.90667 84.0883 6.82L84.3183 7.44C84.1049 7.57333 83.845 7.67667 83.5383 7.75C83.2383 7.83 82.9149 7.87 82.5683 7.87C81.7816 7.87 81.1883 7.63667 80.7883 7.17C80.3883 6.69667 80.1883 6.02333 80.1883 5.15C80.1883 4.73667 80.2383 4.36333 80.3383 4.03C80.4383 3.69 80.5883 3.4 80.7883 3.16C80.995 2.92 81.2483 2.73667 81.5483 2.61C81.8549 2.47667 82.2116 2.41 82.6183 2.41C82.9249 2.41 83.2149 2.45 83.4883 2.53C83.7616 2.60333 84.005 2.7 84.2183 2.82L83.9383 3.42Z" fill="var(--fill-0, black)"/>
<path d="M87.5283 2.41C88.2616 2.41 88.835 2.64667 89.2483 3.12C89.6616 3.58667 89.8683 4.26333 89.8683 5.15C89.8683 6.03 89.6616 6.70333 89.2483 7.17C88.8416 7.63667 88.2683 7.87 87.5283 7.87C86.7949 7.87 86.2216 7.63667 85.8083 7.17C85.3949 6.70333 85.1883 6.03 85.1883 5.15C85.1883 4.26333 85.3949 3.58667 85.8083 3.12C86.2283 2.64667 86.8016 2.41 87.5283 2.41ZM87.5283 3.1C87.0616 3.1 86.6983 3.27667 86.4383 3.63C86.1849 3.97667 86.0583 4.48333 86.0583 5.15C86.0583 5.81667 86.1849 6.32333 86.4383 6.67C86.6983 7.01 87.0616 7.18 87.5283 7.18C87.9949 7.18 88.355 7.01 88.6083 6.67C88.8683 6.32333 88.9983 5.81667 88.9983 5.15C88.9983 4.48333 88.8683 3.97667 88.6083 3.63C88.355 3.27667 87.9949 3.1 87.5283 3.1Z" fill="var(--fill-0, black)"/>
<path d="M91.2305 2.55H91.8405L91.9805 2.99C92.2738 2.76333 92.5605 2.61 92.8405 2.53C93.1205 2.45 93.3671 2.41 93.5805 2.41C94.2205 2.41 94.6671 2.63667 94.9205 3.09C95.1938 2.84333 95.4738 2.67 95.7605 2.57C96.0471 2.46333 96.3305 2.41 96.6105 2.41C97.1238 2.41 97.5138 2.55333 97.7805 2.84C98.0471 3.12667 98.1805 3.57333 98.1805 4.18V7.77H97.3305V4.26C97.3305 4.09333 97.3205 3.94333 97.3005 3.81C97.2805 3.67 97.2371 3.55 97.1705 3.45C97.1038 3.35 97.0071 3.27333 96.8805 3.22C96.7605 3.16667 96.5971 3.14 96.3905 3.14C96.1705 3.14 95.9438 3.19 95.7105 3.29C95.4771 3.38333 95.2838 3.48667 95.1305 3.6V7.77H94.2905V4.13C94.2905 3.98333 94.2771 3.85 94.2505 3.73C94.2238 3.61 94.1738 3.50667 94.1005 3.42C94.0338 3.33333 93.9405 3.26667 93.8205 3.22C93.7005 3.16667 93.5471 3.14 93.3605 3.14C93.2071 3.14 93.0605 3.15667 92.9205 3.19C92.7805 3.22333 92.6538 3.26333 92.5405 3.31C92.4271 3.35667 92.3305 3.40333 92.2505 3.45C92.1705 3.49667 92.1105 3.53 92.0705 3.55V7.77H91.2305V2.55Z" fill="var(--fill-0, black)"/>
</g>
</g>
</svg>
