<svg preserveAspectRatio="none" width="100%" height="100%" overflow="visible" style="display: block;" viewBox="0 0 84 8" fill="none" xmlns="http://www.w3.org/2000/svg">
<g id="2018.03 ~ 2023.08">
<path d="M4.52 6.33V7.08H0.15L0.00999998 6.48L2.3 3.94C2.44667 3.77333 2.59 3.61333 2.73 3.46C2.87 3.3 2.99333 3.14 3.1 2.98C3.20667 2.82 3.29333 2.65333 3.36 2.48C3.42667 2.30667 3.46 2.12 3.46 1.92C3.46 1.76 3.43667 1.61 3.39 1.47C3.34333 1.33 3.26667 1.21 3.16 1.11C3.06 1.00333 2.92667 0.92 2.76 0.86C2.6 0.8 2.40333 0.77 2.17 0.77C1.85 0.77 1.54667 0.84 1.26 0.98C0.98 1.11333 0.713333 1.30667 0.46 1.56L0 1.01C0.1 0.903334 0.22 0.79 0.36 0.67C0.5 0.55 0.663333 0.44 0.85 0.34C1.03667 0.24 1.24333 0.16 1.47 0.0999999C1.70333 0.0333333 1.95667 0 2.23 0C2.57667 0 2.88 0.0500002 3.14 0.15C3.4 0.25 3.61667 0.386667 3.79 0.56C3.96333 0.733333 4.09333 0.936667 4.18 1.17C4.26667 1.39667 4.31 1.63667 4.31 1.89C4.31 2.13667 4.27333 2.36333 4.2 2.57C4.13333 2.77667 4.03667 2.98 3.91 3.18C3.79 3.37333 3.64667 3.56667 3.48 3.76C3.31333 3.95333 3.13333 4.16 2.94 4.38L1.18 6.33H4.52Z" fill="var(--fill-0, black)"/>
<path d="M8.24078 7.18C7.44078 7.18 6.82745 6.88 6.40078 6.28C5.97411 5.68 5.76078 4.79 5.76078 3.61C5.76078 2.43 5.97411 1.53333 6.40078 0.92C6.82745 0.306667 7.44078 0 8.24078 0C9.03412 0 9.64411 0.303333 10.0708 0.91C10.5041 1.51667 10.7208 2.41667 10.7208 3.61C10.7208 4.81 10.5008 5.70667 10.0608 6.3C9.62745 6.88667 9.02078 7.18 8.24078 7.18ZM8.24078 0.73C7.72078 0.73 7.32411 0.966667 7.05078 1.44C6.77745 1.91333 6.64078 2.63667 6.64078 3.61C6.64078 5.50333 7.17412 6.45 8.24078 6.45C8.78078 6.45 9.18078 6.20667 9.44078 5.72C9.70745 5.23333 9.84078 4.53 9.84078 3.61C9.84078 2.63667 9.70411 1.91333 9.43078 1.44C9.15745 0.966667 8.76078 0.73 8.24078 0.73Z" fill="var(--fill-0, black)"/>
<path d="M14.8238 7.08H14.0038V1.17L12.1138 2.35L11.7338 1.69L14.2338 0.13H14.8238V7.08Z" fill="var(--fill-0, black)"/>
<path d="M17.0378 1.76C17.0378 1.51333 17.0845 1.28333 17.1778 1.07C17.2778 0.856667 17.4211 0.67 17.6078 0.51C17.8011 0.35 18.0345 0.226667 18.3078 0.14C18.5878 0.0466667 18.9078 0 19.2678 0C19.9745 0 20.5178 0.156667 20.8978 0.47C21.2845 0.776667 21.4778 1.18667 21.4778 1.7C21.4778 1.90667 21.4445 2.1 21.3778 2.28C21.3111 2.46 21.2211 2.62333 21.1078 2.77C20.9945 2.91 20.8645 3.03667 20.7178 3.15C20.5711 3.26333 20.4145 3.35667 20.2478 3.43C20.7745 3.65 21.1411 3.90333 21.3478 4.19C21.5611 4.47 21.6678 4.81 21.6678 5.21C21.6678 5.49 21.6111 5.75 21.4978 5.99C21.3911 6.23 21.2311 6.43667 21.0178 6.61C20.8111 6.79 20.5511 6.93 20.2378 7.03C19.9311 7.13 19.5778 7.18 19.1778 7.18C18.7445 7.18 18.3711 7.13 18.0578 7.03C17.7511 6.93 17.4978 6.79333 17.2978 6.62C17.1045 6.45333 16.9611 6.25667 16.8678 6.03C16.7811 5.79667 16.7378 5.54667 16.7378 5.28C16.7378 4.86 16.8578 4.49333 17.0978 4.18C17.3445 3.86 17.6778 3.62333 18.0978 3.47C17.7911 3.29667 17.5378 3.07333 17.3378 2.8C17.1378 2.52667 17.0378 2.18 17.0378 1.76ZM17.6278 5.2C17.6278 5.42 17.6678 5.61 17.7478 5.77C17.8345 5.93 17.9478 6.06333 18.0878 6.17C18.2278 6.27667 18.3911 6.35333 18.5778 6.4C18.7711 6.45333 18.9745 6.48 19.1878 6.48C19.4211 6.48 19.6345 6.45 19.8278 6.39C20.0211 6.33 20.1878 6.25 20.3278 6.15C20.4678 6.04333 20.5778 5.91667 20.6578 5.77C20.7378 5.62333 20.7778 5.46 20.7778 5.28C20.7778 5.1 20.7545 4.94 20.7078 4.8C20.6611 4.65333 20.5778 4.52333 20.4578 4.41C20.3378 4.29667 20.1745 4.19667 19.9678 4.11C19.7611 4.01667 19.5011 3.93333 19.1878 3.86L18.8578 3.78C18.6911 3.84 18.5345 3.91 18.3878 3.99C18.2411 4.07 18.1111 4.16667 17.9978 4.28C17.8845 4.39333 17.7945 4.52667 17.7278 4.68C17.6611 4.82667 17.6278 5 17.6278 5.2ZM20.6278 1.76C20.6278 1.62 20.6011 1.48667 20.5478 1.36C20.5011 1.22667 20.4245 1.11333 20.3178 1.02C20.2111 0.92 20.0711 0.84 19.8978 0.78C19.7311 0.72 19.5311 0.69 19.2978 0.69C18.8511 0.69 18.5111 0.793333 18.2778 1C18.0445 1.20667 17.9278 1.45667 17.9278 1.75C17.9278 2.11667 18.0345 2.40333 18.2478 2.61C18.4678 2.81 18.8011 2.97333 19.2478 3.1L19.4578 3.16C19.7911 3.01333 20.0678 2.83 20.2878 2.61C20.5145 2.38333 20.6278 2.1 20.6278 1.76Z" fill="var(--fill-0, black)"/>
<path d="M22.8316 6.71L23.6016 5.93L24.3616 6.71L23.6016 7.48L22.8316 6.71Z" fill="var(--fill-0, black)"/>
<path d="M28.0259 7.18C27.2259 7.18 26.6126 6.88 26.1859 6.28C25.7593 5.68 25.5459 4.79 25.5459 3.61C25.5459 2.43 25.7593 1.53333 26.1859 0.92C26.6126 0.306667 27.2259 0 28.0259 0C28.8193 0 29.4293 0.303333 29.8559 0.91C30.2893 1.51667 30.5059 2.41667 30.5059 3.61C30.5059 4.81 30.2859 5.70667 29.8459 6.3C29.4126 6.88667 28.8059 7.18 28.0259 7.18ZM28.0259 0.73C27.5059 0.73 27.1093 0.966667 26.8359 1.44C26.5626 1.91333 26.4259 2.63667 26.4259 3.61C26.4259 5.50333 26.9593 6.45 28.0259 6.45C28.5659 6.45 28.9659 6.20667 29.2259 5.72C29.4926 5.23333 29.6259 4.53 29.6259 3.61C29.6259 2.63667 29.4893 1.91333 29.2159 1.44C28.9426 0.966667 28.5459 0.73 28.0259 0.73Z" fill="var(--fill-0, black)"/>
<path d="M31.8311 6.14C32.1378 6.24667 32.4178 6.32333 32.6711 6.37C32.9311 6.41 33.1878 6.43 33.4411 6.43C34.0144 6.43 34.4544 6.32 34.7611 6.1C35.0744 5.88 35.2311 5.54 35.2311 5.08C35.2311 4.64667 35.0578 4.34 34.7111 4.16C34.3711 3.97333 33.9078 3.88 33.3211 3.88H32.7011V3.14H33.3111C33.8244 3.14 34.2278 3.02 34.5211 2.78C34.8144 2.54 34.9611 2.20333 34.9611 1.77C34.9611 1.47 34.8511 1.22667 34.6311 1.04C34.4178 0.846667 34.0978 0.75 33.6711 0.75C33.3711 0.75 33.0811 0.8 32.8011 0.9C32.5278 1 32.2778 1.14667 32.0511 1.34L31.6211 0.8C31.8544 0.553334 32.1544 0.36 32.5211 0.22C32.8878 0.0733334 33.2911 0 33.7311 0C34.3911 0 34.9011 0.153333 35.2611 0.46C35.6278 0.76 35.8111 1.17 35.8111 1.69C35.8111 2.11 35.6978 2.48333 35.4711 2.81C35.2444 3.13 34.9311 3.34667 34.5311 3.46C34.7511 3.49333 34.9578 3.55 35.1511 3.63C35.3444 3.70333 35.5111 3.80667 35.6511 3.94C35.7911 4.07333 35.9011 4.23667 35.9811 4.43C36.0678 4.61667 36.1111 4.83333 36.1111 5.08C36.1111 5.78 35.8811 6.30333 35.4211 6.65C34.9611 7.00333 34.3211 7.18 33.5011 7.18C33.1611 7.18 32.8311 7.15333 32.5111 7.1C32.1978 7.05333 31.8911 6.96333 31.5911 6.83L31.8311 6.14Z" fill="var(--fill-0, black)"/>
<path d="M39.2029 4.16C39.2829 3.8 39.4396 3.51333 39.6729 3.3C39.9062 3.08667 40.1829 2.98 40.5029 2.98C40.7496 2.98 40.9529 3.02 41.1129 3.1C41.2796 3.17333 41.4229 3.25667 41.5429 3.35C41.6629 3.43667 41.7762 3.51667 41.8829 3.59C41.9896 3.66333 42.1162 3.7 42.2629 3.7C42.4496 3.7 42.5962 3.64333 42.7029 3.53C42.8162 3.41 42.9129 3.22667 42.9929 2.98L43.6129 3.16C43.5396 3.53333 43.3762 3.83333 43.1229 4.06C42.8762 4.28 42.5929 4.39 42.2729 4.39C42.0262 4.39 41.8262 4.35333 41.6729 4.28C41.5262 4.20667 41.3929 4.12667 41.2729 4.04C41.1596 3.94667 41.0496 3.86333 40.9429 3.79C40.8362 3.71 40.6996 3.67 40.5329 3.67C40.3662 3.67 40.2196 3.73333 40.0929 3.86C39.9662 3.98667 39.8729 4.15667 39.8129 4.37L39.2029 4.16Z" fill="var(--fill-0, black)"/>
<path d="M51.102 6.33V7.08H46.732L46.592 6.48L48.882 3.94C49.0287 3.77333 49.172 3.61333 49.312 3.46C49.452 3.3 49.5754 3.14 49.682 2.98C49.7887 2.82 49.8754 2.65333 49.942 2.48C50.0087 2.30667 50.042 2.12 50.042 1.92C50.042 1.76 50.0187 1.61 49.972 1.47C49.9254 1.33 49.8487 1.21 49.742 1.11C49.642 1.00333 49.5087 0.92 49.342 0.86C49.182 0.8 48.9854 0.77 48.752 0.77C48.432 0.77 48.1287 0.84 47.842 0.98C47.562 1.11333 47.2954 1.30667 47.042 1.56L46.582 1.01C46.682 0.903334 46.802 0.79 46.942 0.67C47.082 0.55 47.2454 0.44 47.432 0.34C47.6187 0.24 47.8254 0.16 48.052 0.0999999C48.2854 0.0333333 48.5387 0 48.812 0C49.1587 0 49.462 0.0500002 49.722 0.15C49.982 0.25 50.1987 0.386667 50.372 0.56C50.5454 0.733333 50.6754 0.936667 50.762 1.17C50.8487 1.39667 50.892 1.63667 50.892 1.89C50.892 2.13667 50.8554 2.36333 50.782 2.57C50.7154 2.77667 50.6187 2.98 50.492 3.18C50.372 3.37333 50.2287 3.56667 50.062 3.76C49.8954 3.95333 49.7154 4.16 49.522 4.38L47.762 6.33H51.102Z" fill="var(--fill-0, black)"/>
<path d="M54.8228 7.18C54.0228 7.18 53.4095 6.88 52.9828 6.28C52.5561 5.68 52.3428 4.79 52.3428 3.61C52.3428 2.43 52.5561 1.53333 52.9828 0.92C53.4095 0.306667 54.0228 0 54.8228 0C55.6161 0 56.2261 0.303333 56.6528 0.91C57.0861 1.51667 57.3028 2.41667 57.3028 3.61C57.3028 4.81 57.0828 5.70667 56.6428 6.3C56.2095 6.88667 55.6028 7.18 54.8228 7.18ZM54.8228 0.73C54.3028 0.73 53.9061 0.966667 53.6328 1.44C53.3595 1.91333 53.2228 2.63667 53.2228 3.61C53.2228 5.50333 53.7561 6.45 54.8228 6.45C55.3628 6.45 55.7628 6.20667 56.0228 5.72C56.2895 5.23333 56.4228 4.53 56.4228 3.61C56.4228 2.63667 56.2861 1.91333 56.0128 1.44C55.7395 0.966667 55.3428 0.73 54.8228 0.73Z" fill="var(--fill-0, black)"/>
<path d="M63.0063 6.33V7.08H58.6363L58.4963 6.48L60.7863 3.94C60.933 3.77333 61.0763 3.61333 61.2163 3.46C61.3563 3.3 61.4797 3.14 61.5863 2.98C61.693 2.82 61.7797 2.65333 61.8463 2.48C61.913 2.30667 61.9463 2.12 61.9463 1.92C61.9463 1.76 61.923 1.61 61.8763 1.47C61.8297 1.33 61.753 1.21 61.6463 1.11C61.5463 1.00333 61.413 0.92 61.2463 0.86C61.0863 0.8 60.8897 0.77 60.6563 0.77C60.3363 0.77 60.033 0.84 59.7463 0.98C59.4663 1.11333 59.1997 1.30667 58.9463 1.56L58.4863 1.01C58.5863 0.903334 58.7063 0.79 58.8463 0.67C58.9863 0.55 59.1497 0.44 59.3363 0.34C59.523 0.24 59.7297 0.16 59.9563 0.0999999C60.1897 0.0333333 60.443 0 60.7163 0C61.063 0 61.3663 0.0500002 61.6263 0.15C61.8863 0.25 62.103 0.386667 62.2763 0.56C62.4497 0.733333 62.5797 0.936667 62.6663 1.17C62.753 1.39667 62.7963 1.63667 62.7963 1.89C62.7963 2.13667 62.7597 2.36333 62.6863 2.57C62.6197 2.77667 62.523 2.98 62.3963 3.18C62.2763 3.37333 62.133 3.56667 61.9663 3.76C61.7997 3.95333 61.6197 4.16 61.4263 4.38L59.6663 6.33H63.0063Z" fill="var(--fill-0, black)"/>
<path d="M64.4971 6.14C64.8038 6.24667 65.0838 6.32333 65.3371 6.37C65.5971 6.41 65.8538 6.43 66.1071 6.43C66.6804 6.43 67.1204 6.32 67.4271 6.1C67.7404 5.88 67.8971 5.54 67.8971 5.08C67.8971 4.64667 67.7238 4.34 67.3771 4.16C67.0371 3.97333 66.5738 3.88 65.9871 3.88H65.3671V3.14H65.9771C66.4904 3.14 66.8938 3.02 67.1871 2.78C67.4804 2.54 67.6271 2.20333 67.6271 1.77C67.6271 1.47 67.5171 1.22667 67.2971 1.04C67.0838 0.846667 66.7638 0.75 66.3371 0.75C66.0371 0.75 65.7471 0.8 65.4671 0.9C65.1938 1 64.9438 1.14667 64.7171 1.34L64.2871 0.8C64.5204 0.553334 64.8204 0.36 65.1871 0.22C65.5538 0.0733334 65.9571 0 66.3971 0C67.0571 0 67.5671 0.153333 67.9271 0.46C68.2938 0.76 68.4771 1.17 68.4771 1.69C68.4771 2.11 68.3638 2.48333 68.1371 2.81C67.9104 3.13 67.5971 3.34667 67.1971 3.46C67.4171 3.49333 67.6238 3.55 67.8171 3.63C68.0104 3.70333 68.1771 3.80667 68.3171 3.94C68.4571 4.07333 68.5671 4.23667 68.6471 4.43C68.7338 4.61667 68.7771 4.83333 68.7771 5.08C68.7771 5.78 68.5471 6.30333 68.0871 6.65C67.6271 7.00333 66.9871 7.18 66.1671 7.18C65.8271 7.18 65.4971 7.15333 65.1771 7.1C64.8638 7.05333 64.5571 6.96333 64.2571 6.83L64.4971 6.14Z" fill="var(--fill-0, black)"/>
<path d="M70.0484 6.71L70.8184 5.93L71.5784 6.71L70.8184 7.48L70.0484 6.71Z" fill="var(--fill-0, black)"/>
<path d="M75.2427 7.18C74.4427 7.18 73.8294 6.88 73.4027 6.28C72.9761 5.68 72.7627 4.79 72.7627 3.61C72.7627 2.43 72.9761 1.53333 73.4027 0.92C73.8294 0.306667 74.4427 0 75.2427 0C76.0361 0 76.6461 0.303333 77.0727 0.91C77.5061 1.51667 77.7227 2.41667 77.7227 3.61C77.7227 4.81 77.5027 5.70667 77.0627 6.3C76.6294 6.88667 76.0227 7.18 75.2427 7.18ZM75.2427 0.73C74.7227 0.73 74.3261 0.966667 74.0527 1.44C73.7794 1.91333 73.6427 2.63667 73.6427 3.61C73.6427 5.50333 74.1761 6.45 75.2427 6.45C75.7827 6.45 76.1827 6.20667 76.4427 5.72C76.7094 5.23333 76.8427 4.53 76.8427 3.61C76.8427 2.63667 76.7061 1.91333 76.4327 1.44C76.1594 0.966667 75.7627 0.73 75.2427 0.73Z" fill="var(--fill-0, black)"/>
<path d="M79.2058 1.76C79.2058 1.51333 79.2524 1.28333 79.3458 1.07C79.4458 0.856667 79.5891 0.67 79.7758 0.51C79.9691 0.35 80.2025 0.226667 80.4758 0.14C80.7558 0.0466667 81.0758 0 81.4358 0C82.1425 0 82.6858 0.156667 83.0658 0.47C83.4524 0.776667 83.6458 1.18667 83.6458 1.7C83.6458 1.90667 83.6125 2.1 83.5458 2.28C83.4791 2.46 83.3891 2.62333 83.2758 2.77C83.1624 2.91 83.0324 3.03667 82.8858 3.15C82.7391 3.26333 82.5824 3.35667 82.4158 3.43C82.9424 3.65 83.3091 3.90333 83.5158 4.19C83.7291 4.47 83.8358 4.81 83.8358 5.21C83.8358 5.49 83.7791 5.75 83.6658 5.99C83.5591 6.23 83.3991 6.43667 83.1858 6.61C82.9791 6.79 82.7191 6.93 82.4058 7.03C82.0991 7.13 81.7458 7.18 81.3458 7.18C80.9124 7.18 80.5391 7.13 80.2258 7.03C79.9191 6.93 79.6658 6.79333 79.4658 6.62C79.2724 6.45333 79.1291 6.25667 79.0358 6.03C78.9491 5.79667 78.9058 5.54667 78.9058 5.28C78.9058 4.86 79.0258 4.49333 79.2658 4.18C79.5124 3.86 79.8458 3.62333 80.2658 3.47C79.9591 3.29667 79.7058 3.07333 79.5058 2.8C79.3058 2.52667 79.2058 2.18 79.2058 1.76ZM79.7958 5.2C79.7958 5.42 79.8358 5.61 79.9158 5.77C80.0024 5.93 80.1158 6.06333 80.2558 6.17C80.3958 6.27667 80.5591 6.35333 80.7458 6.4C80.9391 6.45333 81.1424 6.48 81.3558 6.48C81.5891 6.48 81.8024 6.45 81.9958 6.39C82.1891 6.33 82.3558 6.25 82.4958 6.15C82.6358 6.04333 82.7458 5.91667 82.8258 5.77C82.9058 5.62333 82.9458 5.46 82.9458 5.28C82.9458 5.1 82.9224 4.94 82.8758 4.8C82.8291 4.65333 82.7458 4.52333 82.6258 4.41C82.5058 4.29667 82.3424 4.19667 82.1358 4.11C81.9291 4.01667 81.6691 3.93333 81.3558 3.86L81.0258 3.78C80.8591 3.84 80.7024 3.91 80.5558 3.99C80.4091 4.07 80.2791 4.16667 80.1658 4.28C80.0524 4.39333 79.9624 4.52667 79.8958 4.68C79.8291 4.82667 79.7958 5 79.7958 5.2ZM82.7958 1.76C82.7958 1.62 82.7691 1.48667 82.7158 1.36C82.6691 1.22667 82.5924 1.11333 82.4858 1.02C82.3791 0.92 82.2391 0.84 82.0658 0.78C81.8991 0.72 81.6991 0.69 81.4658 0.69C81.0191 0.69 80.6791 0.793333 80.4458 1C80.2124 1.20667 80.0958 1.45667 80.0958 1.75C80.0958 2.11667 80.2024 2.40333 80.4158 2.61C80.6358 2.81 80.9691 2.97333 81.4158 3.1L81.6258 3.16C81.9591 3.01333 82.2358 2.83 82.4558 2.61C82.6824 2.38333 82.7958 2.1 82.7958 1.76Z" fill="var(--fill-0, black)"/>
</g>
</svg>
