<svg preserveAspectRatio="none" width="100%" height="100%" overflow="visible" style="display: block;" viewBox="0 0 84 8" fill="none" xmlns="http://www.w3.org/2000/svg">
<g id="2022.04 ~ 2022.12">
<path d="M4.52 6.47V7.22H0.15L0.00999998 6.62L2.3 4.08C2.44667 3.91333 2.59 3.75333 2.73 3.6C2.87 3.44 2.99333 3.28 3.1 3.12C3.20667 2.96 3.29333 2.79333 3.36 2.62C3.42667 2.44667 3.46 2.26 3.46 2.06C3.46 1.9 3.43667 1.75 3.39 1.61C3.34333 1.47 3.26667 1.35 3.16 1.25C3.06 1.14333 2.92667 1.06 2.76 1C2.6 0.94 2.40333 0.91 2.17 0.91C1.85 0.91 1.54667 0.98 1.26 1.12C0.98 1.25333 0.713333 1.44667 0.46 1.7L0 1.15C0.1 1.04333 0.22 0.93 0.36 0.81C0.5 0.69 0.663333 0.58 0.85 0.48C1.03667 0.38 1.24333 0.3 1.47 0.24C1.70333 0.173333 1.95667 0.14 2.23 0.14C2.57667 0.14 2.88 0.19 3.14 0.29C3.4 0.39 3.61667 0.526667 3.79 0.7C3.96333 0.873333 4.09333 1.07667 4.18 1.31C4.26667 1.53667 4.31 1.77667 4.31 2.03C4.31 2.27667 4.27333 2.50333 4.2 2.71C4.13333 2.91667 4.03667 3.12 3.91 3.32C3.79 3.51333 3.64667 3.70667 3.48 3.9C3.31333 4.09333 3.13333 4.3 2.94 4.52L1.18 6.47H4.52Z" fill="var(--fill-0, black)"/>
<path d="M8.24078 7.32C7.44078 7.32 6.82745 7.02 6.40078 6.42C5.97411 5.82 5.76078 4.93 5.76078 3.75C5.76078 2.57 5.97411 1.67333 6.40078 1.06C6.82745 0.446667 7.44078 0.14 8.24078 0.14C9.03412 0.14 9.64411 0.443333 10.0708 1.05C10.5041 1.65667 10.7208 2.55667 10.7208 3.75C10.7208 4.95 10.5008 5.84667 10.0608 6.44C9.62745 7.02667 9.02078 7.32 8.24078 7.32ZM8.24078 0.87C7.72078 0.87 7.32411 1.10667 7.05078 1.58C6.77745 2.05333 6.64078 2.77667 6.64078 3.75C6.64078 5.64333 7.17412 6.59 8.24078 6.59C8.78078 6.59 9.18078 6.34667 9.44078 5.86C9.70745 5.37333 9.84078 4.67 9.84078 3.75C9.84078 2.77667 9.70411 2.05333 9.43078 1.58C9.15745 1.10667 8.76078 0.87 8.24078 0.87Z" fill="var(--fill-0, black)"/>
<path d="M16.4243 6.47V7.22H12.0543L11.9143 6.62L14.2043 4.08C14.351 3.91333 14.4943 3.75333 14.6343 3.6C14.7743 3.44 14.8976 3.28 15.0043 3.12C15.111 2.96 15.1976 2.79333 15.2643 2.62C15.331 2.44667 15.3643 2.26 15.3643 2.06C15.3643 1.9 15.341 1.75 15.2943 1.61C15.2476 1.47 15.171 1.35 15.0643 1.25C14.9643 1.14333 14.831 1.06 14.6643 1C14.5043 0.94 14.3076 0.91 14.0743 0.91C13.7543 0.91 13.451 0.98 13.1643 1.12C12.8843 1.25333 12.6176 1.44667 12.3643 1.7L11.9043 1.15C12.0043 1.04333 12.1243 0.93 12.2643 0.81C12.4043 0.69 12.5676 0.58 12.7543 0.48C12.941 0.38 13.1476 0.3 13.3743 0.24C13.6076 0.173333 13.861 0.14 14.1343 0.14C14.481 0.14 14.7843 0.19 15.0443 0.29C15.3043 0.39 15.521 0.526667 15.6943 0.7C15.8676 0.873333 15.9976 1.07667 16.0843 1.31C16.171 1.53667 16.2143 1.77667 16.2143 2.03C16.2143 2.27667 16.1776 2.50333 16.1043 2.71C16.0376 2.91667 15.941 3.12 15.8143 3.32C15.6943 3.51333 15.551 3.70667 15.3843 3.9C15.2176 4.09333 15.0376 4.3 14.8443 4.52L13.0843 6.47H16.4243Z" fill="var(--fill-0, black)"/>
<path d="M22.2251 6.47V7.22H17.8551L17.7151 6.62L20.0051 4.08C20.1517 3.91333 20.2951 3.75333 20.4351 3.6C20.5751 3.44 20.6984 3.28 20.8051 3.12C20.9117 2.96 20.9984 2.79333 21.0651 2.62C21.1317 2.44667 21.1651 2.26 21.1651 2.06C21.1651 1.9 21.1417 1.75 21.0951 1.61C21.0484 1.47 20.9717 1.35 20.8651 1.25C20.7651 1.14333 20.6317 1.06 20.4651 1C20.3051 0.94 20.1084 0.91 19.8751 0.91C19.5551 0.91 19.2517 0.98 18.9651 1.12C18.6851 1.25333 18.4184 1.44667 18.1651 1.7L17.7051 1.15C17.8051 1.04333 17.9251 0.93 18.0651 0.81C18.2051 0.69 18.3684 0.58 18.5551 0.48C18.7417 0.38 18.9484 0.3 19.1751 0.24C19.4084 0.173333 19.6617 0.14 19.9351 0.14C20.2817 0.14 20.5851 0.19 20.8451 0.29C21.1051 0.39 21.3217 0.526667 21.4951 0.7C21.6684 0.873333 21.7984 1.07667 21.8851 1.31C21.9717 1.53667 22.0151 1.77667 22.0151 2.03C22.0151 2.27667 21.9784 2.50333 21.9051 2.71C21.8384 2.91667 21.7417 3.12 21.6151 3.32C21.4951 3.51333 21.3517 3.70667 21.1851 3.9C21.0184 4.09333 20.8384 4.3 20.6451 4.52L18.8851 6.47H22.2251Z" fill="var(--fill-0, black)"/>
<path d="M23.4859 6.85L24.2559 6.07L25.0159 6.85L24.2559 7.62L23.4859 6.85Z" fill="var(--fill-0, black)"/>
<path d="M28.6802 7.32C27.8802 7.32 27.2669 7.02 26.8402 6.42C26.4136 5.82 26.2002 4.93 26.2002 3.75C26.2002 2.57 26.4136 1.67333 26.8402 1.06C27.2669 0.446667 27.8802 0.14 28.6802 0.14C29.4736 0.14 30.0836 0.443333 30.5102 1.05C30.9436 1.65667 31.1602 2.55667 31.1602 3.75C31.1602 4.95 30.9402 5.84667 30.5002 6.44C30.0669 7.02667 29.4602 7.32 28.6802 7.32ZM28.6802 0.87C28.1602 0.87 27.7636 1.10667 27.4902 1.58C27.2169 2.05333 27.0802 2.77667 27.0802 3.75C27.0802 5.64333 27.6136 6.59 28.6802 6.59C29.2202 6.59 29.6202 6.34667 29.8802 5.86C30.1469 5.37333 30.2802 4.67 30.2802 3.75C30.2802 2.77667 30.1436 2.05333 29.8702 1.58C29.5969 1.10667 29.2002 0.87 28.6802 0.87Z" fill="var(--fill-0, black)"/>
<path d="M37.5933 5.71H36.4133V7.22H35.5833V5.71H32.3733L32.2033 5.06L35.2633 0L35.9233 0.41L33.1733 5H35.5833V3.02H36.4133V5H37.5933V5.71Z" fill="var(--fill-0, black)"/>
<path d="M40.199 4.3C40.279 3.94 40.4357 3.65333 40.669 3.44C40.9023 3.22667 41.179 3.12 41.499 3.12C41.7457 3.12 41.949 3.16 42.109 3.24C42.2757 3.31333 42.419 3.39667 42.539 3.49C42.659 3.57667 42.7723 3.65667 42.879 3.73C42.9857 3.80333 43.1123 3.84 43.259 3.84C43.4457 3.84 43.5923 3.78333 43.699 3.67C43.8123 3.55 43.909 3.36667 43.989 3.12L44.609 3.3C44.5357 3.67333 44.3723 3.97333 44.119 4.2C43.8723 4.42 43.589 4.53 43.269 4.53C43.0223 4.53 42.8223 4.49333 42.669 4.42C42.5223 4.34667 42.389 4.26667 42.269 4.18C42.1557 4.08667 42.0457 4.00333 41.939 3.93C41.8323 3.85 41.6957 3.81 41.529 3.81C41.3623 3.81 41.2157 3.87333 41.089 4C40.9623 4.12667 40.869 4.29667 40.809 4.51L40.199 4.3Z" fill="var(--fill-0, black)"/>
<path d="M52.0981 6.47V7.22H47.7281L47.5881 6.62L49.8781 4.08C50.0248 3.91333 50.1681 3.75333 50.3081 3.6C50.4481 3.44 50.5715 3.28 50.6781 3.12C50.7848 2.96 50.8715 2.79333 50.9381 2.62C51.0048 2.44667 51.0381 2.26 51.0381 2.06C51.0381 1.9 51.0148 1.75 50.9681 1.61C50.9215 1.47 50.8448 1.35 50.7381 1.25C50.6381 1.14333 50.5048 1.06 50.3381 1C50.1781 0.94 49.9815 0.91 49.7481 0.91C49.4281 0.91 49.1248 0.98 48.8381 1.12C48.5581 1.25333 48.2915 1.44667 48.0381 1.7L47.5781 1.15C47.6781 1.04333 47.7981 0.93 47.9381 0.81C48.0781 0.69 48.2415 0.58 48.4281 0.48C48.6148 0.38 48.8215 0.3 49.0481 0.24C49.2815 0.173333 49.5348 0.14 49.8081 0.14C50.1548 0.14 50.4581 0.19 50.7181 0.29C50.9781 0.39 51.1948 0.526667 51.3681 0.7C51.5415 0.873333 51.6715 1.07667 51.7581 1.31C51.8448 1.53667 51.8881 1.77667 51.8881 2.03C51.8881 2.27667 51.8515 2.50333 51.7781 2.71C51.7115 2.91667 51.6148 3.12 51.4881 3.32C51.3681 3.51333 51.2248 3.70667 51.0581 3.9C50.8915 4.09333 50.7115 4.3 50.5181 4.52L48.7581 6.47H52.0981Z" fill="var(--fill-0, black)"/>
<path d="M55.8189 7.32C55.0189 7.32 54.4056 7.02 53.9789 6.42C53.5522 5.82 53.3389 4.93 53.3389 3.75C53.3389 2.57 53.5522 1.67333 53.9789 1.06C54.4056 0.446667 55.0189 0.14 55.8189 0.14C56.6122 0.14 57.2222 0.443333 57.6489 1.05C58.0822 1.65667 58.2989 2.55667 58.2989 3.75C58.2989 4.95 58.0789 5.84667 57.6389 6.44C57.2056 7.02667 56.5989 7.32 55.8189 7.32ZM55.8189 0.87C55.2989 0.87 54.9022 1.10667 54.6289 1.58C54.3556 2.05333 54.2189 2.77667 54.2189 3.75C54.2189 5.64333 54.7522 6.59 55.8189 6.59C56.3589 6.59 56.7589 6.34667 57.0189 5.86C57.2856 5.37333 57.4189 4.67 57.4189 3.75C57.4189 2.77667 57.2822 2.05333 57.0089 1.58C56.7356 1.10667 56.3389 0.87 55.8189 0.87Z" fill="var(--fill-0, black)"/>
<path d="M64.0024 6.47V7.22H59.6324L59.4924 6.62L61.7824 4.08C61.9291 3.91333 62.0724 3.75333 62.2124 3.6C62.3524 3.44 62.4758 3.28 62.5824 3.12C62.6891 2.96 62.7758 2.79333 62.8424 2.62C62.9091 2.44667 62.9424 2.26 62.9424 2.06C62.9424 1.9 62.9191 1.75 62.8724 1.61C62.8258 1.47 62.7491 1.35 62.6424 1.25C62.5424 1.14333 62.4091 1.06 62.2424 1C62.0824 0.94 61.8858 0.91 61.6524 0.91C61.3324 0.91 61.0291 0.98 60.7424 1.12C60.4624 1.25333 60.1958 1.44667 59.9424 1.7L59.4824 1.15C59.5824 1.04333 59.7024 0.93 59.8424 0.81C59.9824 0.69 60.1458 0.58 60.3324 0.48C60.5191 0.38 60.7258 0.3 60.9524 0.24C61.1858 0.173333 61.4391 0.14 61.7124 0.14C62.0591 0.14 62.3624 0.19 62.6224 0.29C62.8824 0.39 63.0991 0.526667 63.2724 0.7C63.4458 0.873333 63.5758 1.07667 63.6624 1.31C63.7491 1.53667 63.7924 1.77667 63.7924 2.03C63.7924 2.27667 63.7558 2.50333 63.6824 2.71C63.6158 2.91667 63.5191 3.12 63.3924 3.32C63.2724 3.51333 63.1291 3.70667 62.9624 3.9C62.7958 4.09333 62.6158 4.3 62.4224 4.52L60.6624 6.47H64.0024Z" fill="var(--fill-0, black)"/>
<path d="M69.8032 6.47V7.22H65.4332L65.2932 6.62L67.5832 4.08C67.7299 3.91333 67.8732 3.75333 68.0132 3.6C68.1532 3.44 68.2765 3.28 68.3832 3.12C68.4899 2.96 68.5765 2.79333 68.6432 2.62C68.7099 2.44667 68.7432 2.26 68.7432 2.06C68.7432 1.9 68.7199 1.75 68.6732 1.61C68.6265 1.47 68.5499 1.35 68.4432 1.25C68.3432 1.14333 68.2099 1.06 68.0432 1C67.8832 0.94 67.6865 0.91 67.4532 0.91C67.1332 0.91 66.8299 0.98 66.5432 1.12C66.2632 1.25333 65.9965 1.44667 65.7432 1.7L65.2832 1.15C65.3832 1.04333 65.5032 0.93 65.6432 0.81C65.7832 0.69 65.9465 0.58 66.1332 0.48C66.3199 0.38 66.5265 0.3 66.7532 0.24C66.9865 0.173333 67.2399 0.14 67.5132 0.14C67.8599 0.14 68.1632 0.19 68.4232 0.29C68.6832 0.39 68.8999 0.526667 69.0732 0.7C69.2465 0.873333 69.3765 1.07667 69.4632 1.31C69.5499 1.53667 69.5932 1.77667 69.5932 2.03C69.5932 2.27667 69.5565 2.50333 69.4832 2.71C69.4165 2.91667 69.3199 3.12 69.1932 3.32C69.0732 3.51333 68.9299 3.70667 68.7632 3.9C68.5965 4.09333 68.4165 4.3 68.2232 4.52L66.4632 6.47H69.8032Z" fill="var(--fill-0, black)"/>
<path d="M71.064 6.85L71.834 6.07L72.594 6.85L71.834 7.62L71.064 6.85Z" fill="var(--fill-0, black)"/>
<path d="M76.7184 7.22H75.8984V1.31L74.0084 2.49L73.6284 1.83L76.1284 0.27H76.7184V7.22Z" fill="var(--fill-0, black)"/>
<path d="M83.1723 6.47V7.22H78.8023L78.6623 6.62L80.9523 4.08C81.099 3.91333 81.2423 3.75333 81.3823 3.6C81.5223 3.44 81.6457 3.28 81.7523 3.12C81.859 2.96 81.9457 2.79333 82.0123 2.62C82.079 2.44667 82.1123 2.26 82.1123 2.06C82.1123 1.9 82.089 1.75 82.0423 1.61C81.9957 1.47 81.919 1.35 81.8123 1.25C81.7123 1.14333 81.579 1.06 81.4123 1C81.2523 0.94 81.0557 0.91 80.8223 0.91C80.5023 0.91 80.199 0.98 79.9123 1.12C79.6323 1.25333 79.3657 1.44667 79.1123 1.7L78.6523 1.15C78.7523 1.04333 78.8723 0.93 79.0123 0.81C79.1523 0.69 79.3157 0.58 79.5023 0.48C79.689 0.38 79.8957 0.3 80.1223 0.24C80.3557 0.173333 80.609 0.14 80.8823 0.14C81.229 0.14 81.5323 0.19 81.7923 0.29C82.0523 0.39 82.269 0.526667 82.4423 0.7C82.6157 0.873333 82.7457 1.07667 82.8323 1.31C82.919 1.53667 82.9623 1.77667 82.9623 2.03C82.9623 2.27667 82.9257 2.50333 82.8523 2.71C82.7857 2.91667 82.689 3.12 82.5623 3.32C82.4423 3.51333 82.299 3.70667 82.1323 3.9C81.9657 4.09333 81.7857 4.3 81.5923 4.52L79.8323 6.47H83.1723Z" fill="var(--fill-0, black)"/>
</g>
</svg>
