<svg width="256" height="256" viewBox="0 0 256 256" xmlns="http://www.w3.org/2000/svg" role="img" aria-labelledby="title desc">
  <title id="title">Soccer Ball</title>
  <desc id="desc">A simple flat soccer ball with center and surrounding pentagons</desc>
  <!-- Outer ball -->
  <circle cx="128" cy="128" r="120" fill="#fff" stroke="#111" stroke-width="8"/>

  <!-- Center pentagon -->
  <polygon points="128,90 164.1,116.3 150.3,158.7 105.7,158.7 91.9,116.3"
           fill="#111" stroke="#111" stroke-width="2" stroke-linejoin="round"/>

  <!-- Ring pentagons -->
  <polygon points="177.4,32.0 204.0,51.4 193.8,82.7 160.9,82.7 150.7,51.4"
           fill="#111" stroke="#111" stroke-width="2" stroke-linejoin="round"/>
  <polygon points="207.9,126.0 234.5,145.3 224.3,176.6 191.4,176.6 181.3,145.3"
           fill="#111" stroke="#111" stroke-width="2" stroke-linejoin="round"/>
  <polygon points="128.0,184.0 154.6,203.3 144.5,234.7 111.5,234.7 101.4,203.3"
           fill="#111" stroke="#111" stroke-width="2" stroke-linejoin="round"/>
  <polygon points="48.1,126.0 74.7,145.3 64.6,176.6 31.7,176.6 21.5,145.3"
           fill="#111" stroke="#111" stroke-width="2" stroke-linejoin="round"/>
  <polygon points="78.6,32.0 105.3,51.4 95.1,82.7 62.2,82.7 52.0,51.4"
           fill="#111" stroke="#111" stroke-width="2" stroke-linejoin="round"/>

  <!-- Panel seams -->
  <g stroke="#111" stroke-width="6" stroke-linecap="round">
    <line x1="128" y1="90" x2="128" y2="8"/>
    <line x1="164.14" y1="116.26" x2="242.13" y2="90.92"/>
    <line x1="150.34" y1="158.74" x2="198.53" y2="225.08"/>
    <line x1="105.66" y1="158.74" x2="57.47" y2="225.08"/>
    <line x1="91.86" y1="116.26" x2="13.87" y2="90.92"/>
  </g>
</svg>