
<svg
  width="188"
  height="37"
  viewBox="0 0 188 37"
  fill="none"
  xmlns="http://www.w3.org/2000/svg"
>
  <g filter="url(#filter0_d_185_7308)">
    <path
      d="M177.978 21.1004H172.566L170.54 23.1202V32.991H166.079V27.2988L166.084 25.6809L166.079 25.6363V21.2741L170.719 16.6489H182.439L182.464 32.991L177.998 32.9959L177.978 21.1004Z"
      fill="white"
    />
    <path
      d="M162.848 32.991H151.9L148.733 29.8397V24.5643L150.899 22.4006H160.966L159.661 21.1004H151.198V16.6489H161.513L165.103 20.227L165.093 25.9688L165.108 25.9837L165.088 30.7876V33.0009H162.853L162.848 32.991ZM160.622 28.5444V27.8099L159.666 26.8521H153.184V27.9787L153.752 28.5444H160.627H160.622Z"
      fill="white"
    />
    <path
      d="M93.9399 17.2039L96.2998 14.8566L96.2799 11.5018L100.651 11.477L100.676 16.6481L97.0316 20.2858L93.9399 17.2039Z"
      fill="white"
    />
    <path
      d="M82.0402 27.337L82.0302 16.0618L82.0252 15.64V11.3572H82.0302L82.0203 3.00496L86.3914 3L86.3964 11.3572H93.1274V15.7094H86.4014L86.4064 22.9847H88.2185L88.7612 22.4438V18.4786H93.1274V24.2502L90.0307 27.337H82.0402Z"
      fill="white"
    />
    <path
      d="M65.3204 27.3002L65.3005 11.3203L69.6717 11.3154L69.6866 22.9479H74.9788L76.9553 20.9728V11.5139H81.3265V22.7792L76.786 27.3002H65.3204Z"
      fill="white"
    />
    <path
      d="M48.5811 15.9427V14.9452L48.591 14.9353L48.5811 3H52.9522L52.9572 11.4465H60.898L64.602 15.1387V22.811L60.0665 27.332H48.601L48.5811 15.9377V15.9427ZM58.2544 22.9798L60.2308 21.0096V16.9501L59.0858 15.8087H53.8981L52.9572 16.7466V22.9847H58.2494L58.2544 22.9798Z"
      fill="white"
    />
    <path
      d="M31.8529 27.3383L31.833 15.8646V14.9515L35.3429 11.4528H44.1499L47.8539 15.145V21.522H36.2141V22.9811H47.8539V27.3383H31.8529ZM43.7068 17.1698L42.3427 15.81H37.1551L35.7909 17.1698H43.7118H43.7068Z"
      fill="white"
    />
    <path
      d="M120.038 32.974L120.082 25.9815L120.053 13.3316L125.31 8.09105H136.965L142.57 13.679V21.1578L135.491 28.2147H124.533L124.503 32.9789H120.038V32.974ZM133.639 23.7632L138.105 19.3117V15.5202L135.113 12.5376H127.157L124.518 15.1678L124.538 23.7632H133.639Z"
      fill="white"
    />
    <path d="M147.971 13.0043H143.505V32.9642H147.971V13.0043Z" fill="white" />
    <path
      d="M7.03485 32.9708L7 13.135L12.0682 8.08298H25.799L31.2007 13.4675V27.2389L25.4505 32.9708H7.03485ZM23.6433 28.693L26.8843 25.4623V15.2491L24.0067 12.3807H13.8455L11.3064 14.9116L11.3313 28.693H23.6433Z"
      fill="white"
    />
    <path
      d="M142.478 12.0829L138.47 8.08298H178.597L182.605 12.0829H142.478Z"
      fill="white"
    />
    <path
      d="M26.3379 32.9909L30.3456 29.0059H111.959L110.55 27.5965H99.8311L99.8012 20.7926L103.391 17.2145H116.186V21.6611H105.243L104.381 22.5197L104.277 22.6338V23.1449H112.397L116.186 26.9216V32.9909H26.3379Z"
      fill="white"
    />
  </g>
  <defs>
    <filter
      id="filter0_d_185_7308"
      x="4"
      y="1"
      width="181.605"
      height="36.0009"
      filterUnits="userSpaceOnUse"
      color-interpolation-filters="sRGB"
    >
      <feFlood flood-opacity="0" result="BackgroundImageFix" />
      <feColorMatrix
        in="SourceAlpha"
        type="matrix"
        values="0 0 0 0 0 0 0 0 0 0 0 0 0 0 0 0 0 0 127 0"
        result="hardAlpha"
      />
      <feOffset dy="1" />
      <feGaussianBlur stdDeviation="1.5" />
      <feComposite in2="hardAlpha" operator="out" />
      <feColorMatrix
        type="matrix"
        values="0 0 0 0 0 0 0 0 0 0 0 0 0 0 0 0 0 0 0.09 0"
      />
      <feBlend
        mode="normal"
        in2="BackgroundImageFix"
        result="effect1_dropShadow_185_7308"
      />
      <feBlend
        mode="normal"
        in="SourceGraphic"
        in2="effect1_dropShadow_185_7308"
        result="shape"
      />
    </filter>
  </defs>
</svg>