<svg width="194" height="38" viewBox="0 0 194 38" fill="none" xmlns="http://www.w3.org/2000/svg">
<g id="&#235;&#161;&#156;&#234;&#179;&#160;" filter="url(#filter0_d_223_9631)">
<path id="Vector" d="M185.377 21.3044H179.604L177.443 23.4589V33.988H172.684V27.9162L172.69 26.1905L172.684 26.1428V21.4897L177.634 16.556H190.135L190.161 33.988L185.398 33.9933L185.377 21.3044Z" fill="white"/>
<path id="Vector_2" d="M169.24 33.988H157.562L154.185 30.6266V24.9994L156.495 22.6914H167.233L165.842 21.3044H156.814V16.556H167.817L171.646 20.3727L171.635 26.4975L171.651 26.5134L171.63 31.6376V33.9986H169.246L169.24 33.988ZM166.866 29.2449V28.4615L165.847 27.4398H158.932V28.6414L159.538 29.2449H166.872H166.866Z" fill="white"/>
<path id="Vector_3" d="M95.7351 17.1489L98.2523 14.645L98.2311 11.0665L102.894 11.04L102.92 16.556L99.033 20.4363L95.7351 17.1489Z" fill="white"/>
<path id="Vector_4" d="M83.0471 27.9601L83.0365 15.9329L83.0312 15.483V10.9145H83.0365L83.0259 2.00529L87.6886 2L87.6939 10.9145H94.8738V15.5571H87.6992L87.7045 23.3176H89.6375L90.2164 22.7406V18.5109H94.8738V24.6675L91.5706 27.9601H83.0471Z" fill="white"/>
<path id="Vector_5" d="M65.2087 27.9135L65.1875 10.8679L69.8502 10.8626L69.8661 23.271H75.5112L77.6195 21.1641V11.0744H82.2822V23.091L77.439 27.9135H65.2087Z" fill="white"/>
<path id="Vector_6" d="M47.3535 15.8059V14.7418L47.3641 14.7313L47.3535 2H52.0162L52.0215 11.0098H60.4919L64.4429 14.9483V23.1323L59.605 27.9548H47.3748L47.3535 15.8006V15.8059ZM57.672 23.3123L59.7803 21.2107V16.8805L58.5588 15.6629H53.0252L52.0215 16.6634V23.3176H57.6666L57.672 23.3123Z" fill="white"/>
<path id="Vector_7" d="M29.5083 27.9609L29.4871 15.7219V14.7479L33.231 11.0159H42.6254L46.5765 14.9543V21.7567H34.1604V23.313H46.5765V27.9609H29.5083ZM42.1528 17.1142L40.6977 15.6637H35.1641L33.709 17.1142H42.1581H42.1528Z" fill="white"/>
<path id="Vector_8" d="M123.581 33.9777L123.629 26.519L123.597 13.0254L129.205 7.43532H141.637L147.617 13.396V21.3735L140.065 28.9011H128.377L128.345 33.983H123.581V33.9777ZM138.09 24.1527L142.853 19.4043V15.3599L139.661 12.1784H131.175L128.361 14.9841L128.382 24.1527H138.09Z" fill="white"/>
<path id="Vector_9" d="M153.372 12.6771H148.608V33.9682H153.372V12.6771Z" fill="white"/>
<path id="Vector_10" d="M3.03717 33.975L3 12.8162L8.40616 7.42725H23.0527L28.8147 13.1709V27.8608L22.681 33.975H3.03717ZM20.7532 29.4118L24.2104 25.9657V15.0713L21.1409 12.0116H10.302L7.59365 14.7113L7.6202 29.4118H20.7532Z" fill="white"/>
<path id="Vector_11" d="M147.513 11.6939L143.238 7.42725H186.041L190.316 11.6939H147.513Z" fill="white"/>
<path id="Vector_12" d="M23.6284 33.9894L27.9034 29.7386H114.96L113.457 28.2352H102.023L101.991 20.9776L105.82 17.1608H119.468V21.9039H107.796L106.877 22.8198L106.765 22.9415V23.4868H115.427L119.468 27.5152V33.9894H23.6284Z" fill="white"/>
</g>
<defs>
<filter id="filter0_d_223_9631" x="0" y="0" width="193.316" height="37.9986" filterUnits="userSpaceOnUse" color-interpolation-filters="sRGB">
<feFlood flood-opacity="0" result="BackgroundImageFix"/>
<feColorMatrix in="SourceAlpha" type="matrix" values="0 0 0 0 0 0 0 0 0 0 0 0 0 0 0 0 0 0 127 0" result="hardAlpha"/>
<feOffset dy="1"/>
<feGaussianBlur stdDeviation="1.5"/>
<feComposite in2="hardAlpha" operator="out"/>
<feColorMatrix type="matrix" values="0 0 0 0 0 0 0 0 0 0 0 0 0 0 0 0 0 0 0.09 0"/>
<feBlend mode="normal" in2="BackgroundImageFix" result="effect1_dropShadow_223_9631"/>
<feBlend mode="normal" in="SourceGraphic" in2="effect1_dropShadow_223_9631" result="shape"/>
</filter>
</defs>
</svg>
