<svg xmlns="http://www.w3.org/2000/svg" viewBox="0 0 228 39" fill="none">
<path d="M221.53 23.5282H214.518L211.893 26.1541V38.9872H206.114V31.5867L206.12 29.4834L206.114 29.4253V23.754L212.125 17.7407H227.309L227.342 38.9872L221.556 38.9936L221.53 23.5282Z" fill="white" fill-opacity="0.22"/>
<path d="M201.93 38.9872H187.746L183.643 34.8902V28.0317L186.449 25.2186H199.492L197.802 23.5282H186.836V17.7407H200.201L204.852 22.3926L204.839 29.8576L204.858 29.877L204.833 36.1225V39.0001H201.936L201.93 38.9872ZM199.047 33.2062V32.2513L197.808 31.0061H189.41V32.4707L190.145 33.2062H199.053H199.047Z" fill="white" fill-opacity="0.22"/>
<path d="M112.639 18.4659L115.696 15.4141L115.67 11.0525L121.334 11.0203L121.366 17.7433L116.644 22.4726L112.639 18.4659Z" fill="white" fill-opacity="0.22"/>
<path d="M97.2121 31.6407L97.1992 16.9817L97.1927 16.4333V10.8652H97.1992L97.1863 0.00645155L102.85 0L102.856 10.8652H111.577V16.5236H102.863L102.869 25.9823H105.217L105.92 25.279V20.1238H111.577V27.6275L107.565 31.6407H97.2121Z" fill="white" fill-opacity="0.22"/>
<path d="M75.5682 31.582L75.5424 10.8065L81.2058 10.8L81.2251 25.9236H88.0818L90.6426 23.3557V11.0581H96.3059V25.7042L90.4233 31.582H75.5682Z" fill="white" fill-opacity="0.22"/>
<path d="M53.8818 16.8268V15.53L53.8947 15.5171L53.8818 0H59.5451L59.5516 10.9813H69.8398L74.6388 15.7816V25.7564L68.7626 31.6342H53.9076L53.8818 16.8204V16.8268ZM66.4147 25.9758L68.9755 23.4144V18.1366L67.4919 16.6526H60.7707L59.5516 17.8721V25.9823H66.4083L66.4147 25.9758Z" fill="white" fill-opacity="0.22"/>
<path d="M32.1963 31.6392L32.1705 16.7222V15.535L36.7179 10.9863H48.1285L52.9275 15.7866V24.0775H37.8467V25.9744H52.9275V31.6392H32.1963ZM47.5544 18.419L45.7871 16.6512H39.0658L37.2985 18.419H47.5609H47.5544Z" fill="white" fill-opacity="0.22"/>
<path d="M146.463 38.9524L146.521 29.8616L146.482 13.4154L153.293 6.60205H168.394L175.657 13.867V23.5902L166.484 32.765H152.287L152.248 38.9589H146.463V38.9524ZM164.085 26.9775L169.871 21.1901V16.2607L165.994 12.3831H155.686L152.268 15.8026L152.294 26.9775H164.085Z" fill="white" fill-opacity="0.22"/>
<path d="M182.631 13.0007H176.845V38.9507H182.631V13.0007Z" fill="white" fill-opacity="0.22"/>
<path d="M0.0451519 38.9589L0 13.1702L6.56641 6.60205H24.3563L31.3549 13.6025V31.5068L23.9048 38.9589H0.0451519ZM21.5634 33.3973L25.7625 29.197V15.9188L22.0342 12.1895H8.86917L5.57951 15.48L5.61176 33.3973H21.5634Z" fill="white" fill-opacity="0.22"/>
<path d="M175.526 11.8024L170.333 6.60205H222.323L227.515 11.8024H175.526Z" fill="white" fill-opacity="0.22"/>
<path d="M25.0514 38.9963L30.2439 33.8153H135.984L134.158 31.983H120.271L120.232 23.1373L124.883 18.4854H141.46V24.2664H127.282L126.166 25.3826L126.031 25.531V26.1955H136.551L141.46 31.1055V38.9963H25.0514Z" fill="white" fill-opacity="0.22"/>
</svg>