<svg width="48" height="48" viewBox="0 0 48 48" fill="none" xmlns="http://www.w3.org/2000/svg">
<rect width="48" height="48" rx="11" fill="black"/>
<g clip-path="url(#clip0_13159_129115)">
<path d="M35.1961 18.9363C35.0529 24.2651 29.7194 24.5656 29.4053 24.5813C30.0222 24.7768 33.0015 25.7969 33.2023 28.994C33.6853 36.6763 25.4405 36.1772 24.2645 36.1772H15.2617V12.1786C33.8789 9.75159 35.299 15.0983 35.1961 18.9363ZM26.7886 19.6812C26.5136 17.915 23.0215 18.4193 23.0215 18.4193C23.0215 19.7978 23.0215 20.8001 23.0215 22.1785C23.0215 22.1785 27.2448 22.6114 26.7886 19.6822V19.6812ZM25.8246 27.9087C25.735 25.5364 23.0215 26.131 23.0215 26.131V30.1896C23.0215 30.1896 25.9235 30.5364 25.8246 27.9077V27.9087Z" fill="#FF148F"/>
</g>
<defs>
<clipPath id="clip0_13159_129115">
<rect width="19.9385" height="24.6154" fill="white" transform="translate(15.2617 11.5688)"/>
</clipPath>
</defs>
</svg>
