<svg data-v-5bdb283d="" xmlns="http://www.w3.org/2000/svg" viewBox="0 0 134 59" class="img_logo"><g data-v-5bdb283d="" transform="translate(15.651)"><g data-v-5bdb283d="" transform="translate(0 0)"><g data-v-5bdb283d=""><path data-v-5bdb283d="" d="M343.949 268.548l9.587 11.819 2.813-2.2-8.121-9.821 7.012-8.863-2.853-2.076zM339 248.946v30.86h3.643v-31.659z" transform="translate(-338.998 -248.147)" class="path"></path></g> <path data-v-5bdb283d="" d="M372.048 279.65a6.049 6.049 0 0 1 2.2-5.051q2.2-1.736 6.4-1.737h4.2v-1.4q0-5.07-4.438-5.07a12.048 12.048 0 0 0-2.989.4 16.888 16.888 0 0 0-2.873 1l-1.07-2.595a14.782 14.782 0 0 1 3.508-1.418 14.258 14.258 0 0 1 3.661-.5q7.688 0 7.685 8.265v13.974h-2.692l-.436-2.4a12.968 12.968 0 0 1-3.466 2.037 9.643 9.643 0 0 1-3.506.718 6.1 6.1 0 0 1-4.534-1.657 6.2 6.2 0 0 1-1.646-4.57m6.84 3.273a6.477 6.477 0 0 0 1.558-.2 12.721 12.721 0 0 0 1.617-.519 8.744 8.744 0 0 0 1.518-.778 8.917 8.917 0 0 0 1.264-.979v-5.11h-3.788a7.026 7.026 0 0 0-4.2 1 3.7 3.7 0 0 0-1.32 3.155q0 3.433 3.353 3.433" transform="translate(-351.471 -253.858)" class="path"></path> <path data-v-5bdb283d="" d="M412.26 279.806h-3.643v-30.86l3.643-.8zM422 257.41l2.852 2.076-7.009 8.863 8.119 9.821-2.811 2.2-9.585-11.819z" transform="translate(-365.273 -248.147)" class="path"></path> <path data-v-5bdb283d="" d="M441.666 279.65a6.053 6.053 0 0 1 2.2-5.051q2.2-1.736 6.4-1.737h4.2v-1.4q0-5.07-4.435-5.07a12.067 12.067 0 0 0-2.992.4 16.74 16.74 0 0 0-2.87 1l-1.071-2.595a14.8 14.8 0 0 1 3.505-1.418 14.262 14.262 0 0 1 3.664-.5q7.684 0 7.685 8.265v13.974h-2.695l-.436-2.4a12.956 12.956 0 0 1-3.466 2.037 9.647 9.647 0 0 1-3.5.718 6.1 6.1 0 0 1-4.537-1.657 6.2 6.2 0 0 1-1.643-4.57m6.84 3.273a6.5 6.5 0 0 0 1.558-.2 12.753 12.753 0 0 0 1.617-.519 8.806 8.806 0 0 0 1.518-.778 9.031 9.031 0 0 0 1.261-.979v-5.11h-3.785a7.017 7.017 0 0 0-4.2 1 3.693 3.693 0 0 0-1.322 3.155q0 3.433 3.353 3.433" transform="translate(-377.745 -253.858)" class="path"></path> <path data-v-5bdb283d="" d="M485.506 263.345a8.907 8.907 0 0 1 7.094 2.955q2.576 2.954 2.577 8.464 0 5.429-2.556 8.345a10.107 10.107 0 0 1-14.2 0q-2.576-2.914-2.576-8.345 0-5.509 2.594-8.464a8.929 8.929 0 0 1 7.072-2.954m0 2.954a5.035 5.035 0 0 0-4.377 2.155 10.869 10.869 0 0 0-1.526 6.309q0 4.113 1.526 6.208a5.659 5.659 0 0 0 8.794 0q1.523-2.1 1.524-6.208a10.894 10.894 0 0 0-1.524-6.309 5.079 5.079 0 0 0-4.417-2.155" transform="translate(-390.643 -253.883)" class="path"></path></g></g> <g data-v-5bdb283d="" transform="translate(0 47.461)"><path data-v-5bdb283d="" d="M321.592 333.566v1.534h-7.733v-10.72h7.58v1.532h-5.9v2.833h4.671v1.531h-4.671v3.292z" transform="translate(-313.859 -324.378)" class="path"></path> <path data-v-5bdb283d="" d="M339.076 324.378V335.1h-1.455l-5.973-7.734v7.734h-1.685v-10.72h1.455l5.973 7.733v-7.733z" transform="translate(-319.937 -324.378)" class="path"></path> <path data-v-5bdb283d="" d="M356.154 324.378v1.532h-3.216v9.19h-1.685v-9.19h-3.216v-1.532z" transform="translate(-326.758 -324.378)" class="path"></path> <path data-v-5bdb283d="" d="M372.738 333.566v1.534H365v-10.72h7.581v1.532h-5.9v2.833h4.671v1.531h-4.671v3.292z" transform="translate(-333.161 -324.378)" class="path"></path> <path data-v-5bdb283d="" d="M381.111 324.378h4.518a3.306 3.306 0 0 1 3.445 3.292 3.392 3.392 0 0 1-2.144 3.14l2.45 4.288h-1.838l-2.3-4.135H382.8v4.137h-1.684zm4.518 1.532H382.8v3.522h2.833a1.761 1.761 0 0 0 0-3.522z" transform="translate(-339.24 -324.378)" class="path"></path> <path data-v-5bdb283d="" d="M404.964 324.378v1.532h-3.216v9.19h-1.684v-9.19h-3.216v-1.532z" transform="translate(-345.179 -324.378)" class="path"></path> <path data-v-5bdb283d="" d="M414.321 324.378H416l4.442 10.72h-1.761l-1.148-2.833h-4.748l-1.145 2.835h-1.761zm-.919 6.355h3.522l-1.761-4.442z" transform="translate(-350.098 -324.378)" class="path"></path> <path data-v-5bdb283d="" d="M430.29 324.378h1.684V335.1h-1.684z" transform="translate(-357.801 -324.378)" class="path"></path> <path data-v-5bdb283d="" d="M447.516 324.378V335.1h-1.455l-5.973-7.734v7.734H438.4v-10.72h1.455l5.973 7.733v-7.733z" transform="translate(-360.863 -324.378)" class="path"></path> <path data-v-5bdb283d="" d="M467.677 324.378h1.455V335.1h-1.685v-7.81l-3.9 4.9-3.906-4.9v7.81h-1.684v-10.72h1.455l4.135 5.206z" transform="translate(-368.241 -324.378)" class="path"></path> <path data-v-5bdb283d="" d="M488.554 333.566v1.534h-7.733v-10.72h7.579v1.532h-5.9v2.833h4.671v1.531H482.5v3.292z" transform="translate(-376.871 -324.378)" class="path"></path> <path data-v-5bdb283d="" d="M506.531 324.378V335.1h-1.455l-5.973-7.734v7.734h-1.684v-10.72h1.455l5.973 7.733v-7.733z" transform="translate(-383.136 -324.378)" class="path"></path> <path data-v-5bdb283d="" d="M524.1 324.378v1.532h-3.216v9.19H519.2v-9.19h-3.216v-1.532z" transform="translate(-390.142 -324.378)" class="path"></path></g></svg>