<svg xmlns="http://www.w3.org/2000/svg" width="80" height="21" viewBox="0 0 80 21" fill="none">
  <g clip-path="url(#clip0_36867_23830)">
    <path d="M23.7037 14.1597C25.5499 16.4491 29.956 14.6365 31.1092 13.5555V19.4129C23.7027 21.7902 16.2962 20.6855 16.5727 13.0717C16.9054 3.92763 31.5584 3.02034 31.2582 9.46817C31.1901 10.9283 30.4813 13.5861 23.7037 14.1597ZM23.2012 13.0717C26.8659 11.7024 25.8737 10.0319 25.0592 9.83149C24.3197 9.64983 22.8507 10.1217 23.2012 13.0717Z" fill="white"/>
    <path d="M17.1466 6.39792C16.9995 10.6649 12.5331 10.9492 12.2735 10.9621C12.7829 11.12 15.2353 11.9454 15.4051 14.53C15.7872 20.3431 9.56344 20.3431 8.03219 20.3431H0.378906V0.935373C15.7358 -1.02731 17.2384 3.72341 17.1466 6.39891V6.39792ZM9.36796 13.7995C9.36796 11.9444 7.0163 12.2188 7.0163 12.2188V15.4976C7.0163 15.4976 9.36796 15.7286 9.36796 13.7995ZM10.139 7.35261C10.139 5.55677 7.0163 5.97636 7.0163 5.97636V9.01911C7.0163 9.01911 10.139 9.44265 10.139 7.35261Z" fill="white"/>
    <path d="M79.3552 10.64V5.47168H66.3726V11.9373L74.3221 9.8117V10.4436C69.4322 11.107 66.113 15.4362 66.113 20.3508H79.3552V13.5623L72.7336 15.3325C74.3843 11.7329 77.8555 10.9392 79.3552 10.64Z" fill="white"/>
    <path d="M45.4607 5.47493H51.7407L50.6942 10.0213H51.3922C51.3922 7.68344 52.8286 4.52024 56.9742 5.47493V11.9405C55.1606 11.9405 52.0981 11.7401 52.0981 16.3023V20.355H45.4607V5.47493Z" fill="white"/>
    <path d="M32.5678 5.47493H38.8478L37.8013 10.0213H38.4993C38.4993 7.68344 39.9357 4.52024 44.0813 5.47493V11.9405C42.2677 11.9405 39.2052 11.7401 39.2052 16.3023V20.355H32.5678V5.47493Z" fill="white"/>
    <path d="M58.0997 5.38822C58.2765 3.59041 60.021 2.16874 61.9965 2.21317C63.971 2.2576 65.4292 3.75034 65.2515 5.54914C65.0748 7.34695 63.3303 8.76862 61.3548 8.72419C59.3802 8.67976 57.922 7.18702 58.0997 5.38822ZM61.2778 9.514C60.1078 9.48735 59.085 9.02728 58.3574 8.33619V20.3473H64.9948V7.99756C64.0875 8.9641 62.733 9.54658 61.2778 9.514Z" fill="white"/>
  </g>
  <defs>
    <clipPath id="clip0_36867_23830">
      <rect width="80" height="21" fill="white"/>
    </clipPath>
  </defs>
</svg>